<?xml version="1.0" encoding="utf-8"?>
<!-- Generator: Adobe Illustrator 24.0.3, SVG Export Plug-In . SVG Version: 6.00 Build 0)  -->
<svg version="1.1" id="Capa_1" xmlns="http://www.w3.org/2000/svg" xmlns:xlink="http://www.w3.org/1999/xlink" x="0px" y="0px"
	 viewBox="0 0 348.3 348.3" style="enable-background:new 0 0 348.3 348.3;" xml:space="preserve">
<style type="text/css">
	.st0{fill-rule:evenodd;clip-rule:evenodd;}
</style>
<g>
	<g>
		<path class="st0" d="M229.1,174.1L333.5,69.7c15.3-15.3,15.3-40,0-55.3s-40-15.3-55.3,0L173.9,118.8L69.5,14.4
			c-15.3-15.3-40-15.3-55.3,0C-1,29.7-1,54.4,14.2,69.7l104.4,104.4L14.2,278.5c-15.3,15.3-15.3,40,0,55.3s40,15.3,55.3,0
			l104.4-104.4l104.4,104.4c15.3,15.3,40,15.3,55.3,0s15.3-40,0-55.3L229.1,174.1z"/>
	</g>
</g>
</svg>
