<?xml version="1.0" encoding="utf-8"?>
<!-- Generator: Adobe Illustrator 24.0.3, SVG Export Plug-In . SVG Version: 6.00 Build 0)  -->
<svg version="1.1" id="圖層_1" xmlns="http://www.w3.org/2000/svg" xmlns:xlink="http://www.w3.org/1999/xlink" x="0px" y="0px"
	 viewBox="0 0 54 54" style="enable-background:new 0 0 54 54;" xml:space="preserve">
<style type="text/css">
	.st0{fill:#FFFFFF;}
</style>
<g>
	<g>
		<path class="st0" d="M46.6,50.5H29c-2.2,0-3.9-1.7-3.9-3.9V30.9c0-2.2,1.7-3.9,3.9-3.9h17.6c2.2,0,3.9,1.7,3.9,3.9v15.7
			C50.5,48.8,48.8,50.5,46.6,50.5z M29,29c-1.1,0-1.9,0.8-1.9,1.9v15.7c0,1.1,0.8,1.9,1.9,1.9h17.6c1.1,0,1.9-0.8,1.9-1.9V30.9
			c0-1.1-0.8-1.9-1.9-1.9H29z"/>
	</g>
	<g>
		<path class="st0" d="M30,14.3h-2v-2.9c0-3.3-2.6-5.8-5.8-5.8c-3.3,0-5.8,2.6-5.8,5.8v2.9h-2v-2.9c0-4.4,3.4-7.8,7.8-7.8
			c4.4,0,7.8,3.4,7.8,7.8V14.3z"/>
	</g>
	<g>
		<path class="st0" d="M37.8,29c-0.1,0-0.1,0-0.2,0c-1-0.2-6-1.1-7.4-2.5c-1.7-1.7-1.7-4.4,0-6c1.7-1.7,4.4-1.7,6,0l0,0
			c1.4,1.4,2.4,6.4,2.5,7.4c0.1,0.3,0,0.6-0.3,0.9C38.3,28.9,38,29,37.8,29z M33.2,21.2c-0.6,0-1.2,0.2-1.6,0.7
			c-0.9,0.9-0.9,2.3,0,3.2c0.5,0.5,2.7,1.2,4.9,1.7c-0.5-2.2-1.2-4.3-1.7-4.9C34.4,21.4,33.8,21.2,33.2,21.2z"/>
	</g>
	<g>
		<path class="st0" d="M37.8,29c-0.3,0-0.5-0.1-0.7-0.3c-0.2-0.2-0.3-0.6-0.3-0.9c0.2-1,1.1-6,2.5-7.4l0,0c1.7-1.7,4.4-1.7,6,0
			c0.8,0.8,1.2,1.9,1.2,3c0,1.1-0.4,2.2-1.2,3c-1.4,1.4-6.4,2.4-7.4,2.5C37.9,29,37.8,29,37.8,29z M40.7,21.8
			c-0.5,0.5-1.2,2.7-1.7,4.9c2.2-0.5,4.3-1.2,4.9-1.7c0.4-0.4,0.7-1,0.7-1.6s-0.2-1.2-0.7-1.6C43,21,41.6,21,40.7,21.8L40.7,21.8z"
			/>
	</g>
	<g>
		<path class="st0" d="M29,50.5H4.5c-0.3,0-0.5-0.1-0.7-0.3c-0.2-0.2-0.3-0.5-0.3-0.8l2.9-35.2c0-0.5,0.5-0.9,1-0.9h29.3
			c0.5,0,0.9,0.4,1,0.9l0.3,3.1c0.1,0.5-0.4,1-0.9,1.1c-0.6,0.1-1-0.4-1.1-0.9l-0.2-2.2H8.4L5.6,48.5H29c0.6,0,1,0.4,1,1
			S29.5,50.5,29,50.5z"/>
	</g>
	<g>
		<path class="st0" d="M37.8,50.5c-0.6,0-1-0.4-1-1V28c0-0.6,0.4-1,1-1s1,0.4,1,1v21.5C38.8,50.1,38.3,50.5,37.8,50.5z"/>
	</g>
</g>
</svg>
