<?xml version="1.0" encoding="utf-8"?>
<!-- Generator: Adobe Illustrator 24.0.3, SVG Export Plug-In . SVG Version: 6.00 Build 0)  -->
<svg version="1.1" id="圖層_1" xmlns="http://www.w3.org/2000/svg" xmlns:xlink="http://www.w3.org/1999/xlink" x="0px" y="0px"
	 viewBox="0 0 54 54" style="enable-background:new 0 0 54 54;" xml:space="preserve">
<style type="text/css">
	.st0{fill:#FFFFFF;}
</style>
<g>
	<path class="st0" d="M39,25c0-7.7-6.3-14-14-14s-14,6.3-14,14s6.3,14,14,14S39,32.7,39,25z M13,25c0-6.6,5.4-12,12-12s12,5.4,12,12
		s-5.4,12-12,12S13,31.6,13,25z"/>
	<path class="st0" d="M45.8,40.2l-5.6-5.6c1.8-2.8,2.8-6,2.8-9.6c0-9.9-8.1-18-18-18S7,15.1,7,25s8.1,18,18,18c3.5,0,6.8-1,9.6-2.8
		l5.6,5.6C41,46.6,42,47,43,47s2-0.4,2.8-1.2C47.4,44.3,47.4,41.7,45.8,40.2z M9,25c0-8.8,7.2-16,16-16s16,7.2,16,16
		c0,3.6-1.2,6.9-3.2,9.6c-0.2,0.2-0.3,0.4-0.5,0.6s-0.4,0.5-0.6,0.7c-0.2,0.3-0.5,0.5-0.8,0.8c-0.2,0.2-0.4,0.4-0.7,0.6
		c-0.2,0.2-0.4,0.3-0.6,0.5c-2.7,2-6,3.2-9.6,3.2C16.2,41,9,33.8,9,25z M44.4,44.4c-0.8,0.8-2,0.8-2.8,0L36.2,39c0,0,0.1,0,0.1-0.1
		c1-0.8,1.9-1.7,2.7-2.7c0,0,0,0,0.1-0.1l5.4,5.4C45.2,42.4,45.2,43.6,44.4,44.4z"/>
</g>
</svg>
