<?xml version="1.0" encoding="utf-8"?>
<!-- Generator: Adobe Illustrator 24.0.3, SVG Export Plug-In . SVG Version: 6.00 Build 0)  -->
<svg version="1.1" id="圖層_1" xmlns="http://www.w3.org/2000/svg" xmlns:xlink="http://www.w3.org/1999/xlink" x="0px" y="0px"
	 viewBox="0 0 54 54" style="enable-background:new 0 0 54 54;" xml:space="preserve">
<style type="text/css">
	.st0{fill:#FFFFFF;}
</style>
<g>
	<g>
		<g>
			<path class="st0" d="M33.2,47.6c-0.6,0-1-0.4-1-1V34.8h-3.3c-0.6,0-1-0.4-1-1s0.4-1,1-1h3.4c1,0,1.9,0.8,1.9,1.9v12
				C34.2,47.2,33.7,47.6,33.2,47.6z"/>
		</g>
		<g>
			<path class="st0" d="M26.3,47.6c-0.6,0-1-0.4-1-1V27.1h-3.3c-0.6,0-1-0.4-1-1s0.4-1,1-1h3.4c1,0,1.9,0.8,1.9,1.9v19.6
				C27.3,47.2,26.9,47.6,26.3,47.6z"/>
		</g>
		<g>
			<path class="st0" d="M19.5,47.6c-0.6,0-1-0.4-1-1V20.3h-3.3c-0.6,0-1-0.4-1-1s0.4-1,1-1h3.4c1,0,1.9,0.8,1.9,1.9v26.5
				C20.5,47.2,20.1,47.6,19.5,47.6z"/>
		</g>
		<g>
			<path class="st0" d="M12.7,47.6c-0.6,0-1-0.4-1-1V13.5H6.9v33.1c0,0.6-0.4,1-1,1s-1-0.4-1-1V13.3c0-1,0.8-1.9,1.9-1.9h5.1
				c1,0,1.9,0.8,1.9,1.9v33.3C13.7,47.2,13.2,47.6,12.7,47.6z"/>
		</g>
		<g>
			<path class="st0" d="M52,47.6H1.6c-0.6,0-1-0.4-1-1s0.4-1,1-1H52c0.6,0,1,0.4,1,1S52.5,47.6,52,47.6z"/>
		</g>
	</g>
	<g>
		<g>
			<path class="st0" d="M41.7,14.6c-0.6,0-1-0.4-1-1v-1.9c0-0.6,0.4-1,1-1s1,0.4,1,1v1.9C42.7,14.1,42.3,14.6,41.7,14.6z"/>
		</g>
		<g>
			<path class="st0" d="M41.7,26.3c-0.6,0-1-0.4-1-1v-1.7c0-0.6,0.4-1,1-1s1,0.4,1,1v1.7C42.7,25.8,42.3,26.3,41.7,26.3z"/>
		</g>
		<g>
			<path class="st0" d="M41.8,24.6c-3.6,0-4.9-2.5-4.9-4.1c0-0.6,0.4-1,1-1s1,0.4,1,1c0,0.5,0.5,2.1,2.9,2.1c1.9,0,2.4-0.9,2.4-1.6
				c0-0.8-0.7-1.1-2.8-1.6c-1.7-0.4-4.1-1-4.1-3.3c0-1,0.4-3.4,4.2-3.4c3.2,0,4.3,2,4.3,3.7c0,0.6-0.4,1-1,1s-1-0.4-1-1
				c0-0.8-0.4-1.7-2.3-1.7c-2.2,0-2.2,0.9-2.2,1.4c0,0.6,0.7,0.9,2.5,1.4c1.8,0.4,4.3,1,4.3,3.6C46.2,22.6,45.1,24.6,41.8,24.6z"/>
		</g>
		<g>
			<path class="st0" d="M41.3,30.6c-6.7,0-12.1-5.4-12.1-12.1S34.6,6.4,41.3,6.4c6.7,0,12.1,5.4,12.1,12.1S48,30.6,41.3,30.6z
				 M41.3,8.4c-5.6,0-10.1,4.5-10.1,10.1s4.5,10.1,10.1,10.1S51.4,24,51.4,18.5S46.9,8.4,41.3,8.4z"/>
		</g>
	</g>
</g>
</svg>
