<?xml version="1.0" encoding="utf-8"?>
<!-- Generator: Adobe Illustrator 24.0.3, SVG Export Plug-In . SVG Version: 6.00 Build 0)  -->
<svg version="1.1" id="圖層_1" xmlns="http://www.w3.org/2000/svg" xmlns:xlink="http://www.w3.org/1999/xlink" x="0px" y="0px"
	 viewBox="0 0 54 54" style="enable-background:new 0 0 54 54;" xml:space="preserve">
<style type="text/css">
	.st0{fill:#adda55;}
</style>
<g>
	<g>
		<path class="st0" d="M30.8,31.2c-4.4,0-8-3.6-8-8c0-4.4,3.6-8,8-8c4.4,0,8,3.6,8,8C38.8,27.6,35.2,31.2,30.8,31.2z M30.8,17.2
			c-3.3,0-6,2.7-6,6s2.7,6,6,6s6-2.7,6-6S34.1,17.2,30.8,17.2z"/>
	</g>
	<g>
		<path class="st0" d="M30.8,50.5c-3.4,0-6.3-2.8-6.3-6.3c0-3.4,2.8-6.3,6.3-6.3c3.4,0,6.3,2.8,6.3,6.3C37,47.7,34.2,50.5,30.8,50.5
			z M30.8,40c-2.3,0-4.3,1.9-4.3,4.3s1.9,4.3,4.3,4.3s4.3-1.9,4.3-4.3S33.1,40,30.8,40z"/>
	</g>
	<g>
		<path class="st0" d="M9.8,29.5c-3.4,0-6.3-2.8-6.3-6.3S6.3,17,9.8,17s6.3,2.8,6.3,6.3S13.2,29.5,9.8,29.5z M9.8,19
			c-2.3,0-4.3,1.9-4.3,4.3c0,2.3,1.9,4.3,4.3,4.3s4.3-1.9,4.3-4.3C14,20.9,12.1,19,9.8,19z"/>
	</g>
	<g>
		<path class="st0" d="M16.4,14.3c-1.4,0-2.8-0.5-3.8-1.6c-2.1-2.1-2.1-5.5,0-7.6c1-1,2.4-1.6,3.8-1.6s2.8,0.6,3.8,1.6l0,0l0,0
			c2.1,2.1,2.1,5.5,0,7.6C19.2,13.7,17.8,14.3,16.4,14.3z M16.4,5.5c-0.9,0-1.8,0.4-2.4,1S13,8,13,8.9s0.4,1.8,1,2.4
			c1.3,1.3,3.5,1.3,4.8,0c0.6-0.6,1-1.5,1-2.4s-0.4-1.8-1-2.4l0,0C18.2,5.9,17.3,5.5,16.4,5.5z"/>
	</g>
	<g>
		<path class="st0" d="M45.1,43c-1.4,0-2.8-0.5-3.8-1.6c-1-1-1.6-2.4-1.6-3.8c0-1.4,0.6-2.8,1.6-3.8c2.1-2.1,5.5-2.1,7.6,0
			c2.1,2.1,2.1,5.5,0,7.6C47.9,42.4,46.5,43,45.1,43z M45.1,34.2c-0.9,0-1.8,0.4-2.4,1c-0.6,0.6-1,1.5-1,2.4c0,0.9,0.4,1.8,1,2.4
			c1.3,1.3,3.5,1.3,4.8,0c1.3-1.3,1.3-3.5,0-4.8C46.9,34.5,46,34.2,45.1,34.2z"/>
	</g>
	<g>
		<path class="st0" d="M45.1,13.4c-1.2,0-2.3-0.5-3.2-1.3c-0.9-0.9-1.3-2-1.3-3.2c0-1.2,0.5-2.3,1.3-3.2l0,0c0.8-0.9,2-1.3,3.2-1.3
			s2.3,0.5,3.2,1.3c1.8,1.8,1.8,4.6,0,6.4C47.5,12.9,46.3,13.4,45.1,13.4z M45.1,6.4c-0.7,0-1.3,0.3-1.8,0.7l0,0
			c-0.5,0.5-0.7,1.1-0.7,1.8c0,0.7,0.3,1.3,0.7,1.8c0.9,0.9,2.6,0.9,3.5,0c1-1,1-2.6,0-3.5C46.4,6.6,45.8,6.4,45.1,6.4z M42.6,6.4
			L42.6,6.4L42.6,6.4z"/>
	</g>
	<g>
		<g>
			<path class="st0" d="M30.8,40L30.8,40c-0.6,0-1.1-0.4-1.1-1v-8.8c0-0.6,0.4-1,1-1s1.1,0.4,1.1,1V39C31.8,39.5,31.4,40,30.8,40z
				 M30.8,39L30.8,39L30.8,39z"/>
		</g>
		<g>
			<path class="st0" d="M23.8,24.3H15c-0.6,0-1-0.4-1-1s0.4-1.1,1-1.1h8.8c0.6,0,1,0.4,1,1S24.3,24.3,23.8,24.3z"/>
		</g>
		<g>
			<path class="st0" d="M25.8,19.3c-0.2,0-0.5-0.1-0.7-0.3l-5.7-5.7c-0.4-0.4-0.4-1,0-1.4c0.4-0.4,1.1-0.5,1.5-0.1l5.7,5.7
				c0.4,0.4,0.4,1,0,1.4C26.3,19.2,26,19.3,25.8,19.3z"/>
		</g>
		<g>
			<path class="st0" d="M41.4,34.9L41.4,34.9c-0.3,0-0.6-0.1-0.7-0.3L35,28.9c-0.4-0.4-0.4-1,0-1.4c0.2-0.2,0.5-0.3,0.7-0.3
				c0.3,0,0.5,0.1,0.7,0.3l5.7,5.7c0.4,0.4,0.4,1,0,1.4C42,34.7,41.7,34.9,41.4,34.9z"/>
		</g>
		<g>
			<path class="st0" d="M35.8,19.3C35.8,19.3,35.8,19.3,35.8,19.3c-0.3,0-0.5-0.1-0.7-0.3L35,18.9c-0.4-0.4-0.4-1,0-1.4l6.9-6.9
				c0.4-0.4,1-0.4,1.4,0c0.4,0.4,0.5,1.1,0.1,1.5L36.5,19C36.3,19.2,36,19.3,35.8,19.3z"/>
		</g>
	</g>
</g>
</svg>
