<?xml version="1.0" encoding="utf-8"?>
<!-- Generator: Adobe Illustrator 24.0.3, SVG Export Plug-In . SVG Version: 6.00 Build 0)  -->
<svg version="1.1" id="圖層_1" xmlns="http://www.w3.org/2000/svg" xmlns:xlink="http://www.w3.org/1999/xlink" x="0px" y="0px"
	 viewBox="0 0 54 54" style="enable-background:new 0 0 54 54;" xml:space="preserve">
<style type="text/css">
	.st0{fill:none;stroke:#FFFFFF;stroke-width:2;stroke-linecap:round;stroke-linejoin:round;stroke-miterlimit:10;}
	.st1{fill:none;stroke:#FFFFFF;stroke-width:2;stroke-linejoin:round;stroke-miterlimit:10;}
</style>
<g>
	<g>
		<g>
			<g>
				<g>
					<path class="st0" d="M12.4,18.4c-0.8,1.4-1.4,2.8-1.8,4.4l-6.1,1v6.4l6.1,1c0.4,1.6,1,3.1,1.8,4.5l-3.6,5l4.5,4.5l5-3.6
						c1.4,0.8,2.8,1.5,4.5,1.8l1,6.1h6.4l1-6.1c1.5-0.4,3-1,4.4-1.8l5,3.6l4.5-4.5l-3.6-5c0.8-1.4,1.5-2.8,1.8-4.5l6.1-1v-6.4
						l-6.1-1c-0.4-1.6-1-3.1-1.8-4.5l3.5-5l-4.5-4.5l-4.9,3.6c-1.4-0.8-2.8-1.5-4.5-1.8l-1-6.1h-6.4l-0.4,2.7"/>
					<path class="st0" d="M22.8,10.6c-1.6,0.4-3.1,1-4.5,1.8l-5-3.6l-4.5,4.5l1.5,2.1"/>
				</g>
			</g>
		</g>
	</g>
	<path class="st1" d="M23.1,39.1c-0.1-3.1-2.4-4.7-3-5.3L20,33.6c-2-1.9-3.3-4.5-3.3-7.5c0-4.2,2.6-7.9,6.3-9.5v7.7c0,2.2,1.8,4,4,4
		h0.1c2.2,0,4-1.8,4-4v-7.7c3.7,1.5,6.3,5.2,6.3,9.5c0,3-1.2,5.6-3.3,7.5L34,33.7c-0.6,0.6-2.9,2.3-3,5.4"/>
</g>
</svg>
