<?xml version="1.0" encoding="utf-8"?>
<!-- Generator: Adobe Illustrator 24.0.3, SVG Export Plug-In . SVG Version: 6.00 Build 0)  -->
<svg version="1.1" id="圖層_1" xmlns="http://www.w3.org/2000/svg" xmlns:xlink="http://www.w3.org/1999/xlink" x="0px" y="0px"
	 viewBox="0 0 54 54" style="enable-background:new 0 0 54 54;" xml:space="preserve">
<style type="text/css">
	.st0{fill:#b7b7b7;}
</style>
<g>
	<g>
		<path class="st0" d="M43.2,39.6H19.1c-0.6,0-1-0.4-1-1s0.4-1,1-1h24.2c2.6,0,4.8-2.1,4.8-4.7c0-1.6-0.8-3-2.1-3.9
			c-0.5-0.3-0.6-0.9-0.3-1.4c0.3-0.5,0.9-0.6,1.4-0.3c1.8,1.3,2.9,3.3,2.9,5.6C50,36.6,47,39.6,43.2,39.6z"/>
	</g>
	<g>
		<path class="st0" d="M12.5,39.6c-3.6,0-6.8-2-8.2-5.1c-0.2-0.5,0-1.1,0.5-1.3c0.5-0.2,1.1,0,1.3,0.5c1,2.4,3.5,3.9,6.4,3.9
			c0.6,0,1,0.4,1,1S13.1,39.6,12.5,39.6z"/>
	</g>
	<g>
		<path class="st0" d="M5,29.6c-0.1,0-0.2,0-0.3,0c-0.5-0.2-0.8-0.7-0.7-1.3c1.2-3.7,4.6-6.2,8.5-6.2c1.3,0,2.6,0.3,3.8,0.9
			c1.7-5.2,6.6-8.8,12.1-8.8c6.9,0,12.5,5.5,12.7,12.3c0.7-0.2,1.4-0.3,2.1-0.3c0.6,0,1,0.4,1,1c0,0.6-0.4,1-1,1
			c-0.9,0-1.8,0.3-2.6,0.7c-0.3,0.2-0.7,0.2-1.1,0c-0.3-0.2-0.5-0.6-0.5-0.9c0-0.3,0.1-0.7,0.1-1c0-5.9-4.8-10.7-10.7-10.7
			c-5.1,0-9.5,3.6-10.5,8.6c-0.1,0.3-0.3,0.6-0.6,0.7c-0.3,0.1-0.7,0.1-0.9-0.1c-1.1-0.8-2.5-1.2-3.9-1.2c-3,0-5.7,1.9-6.6,4.8
			C5.8,29.4,5.4,29.6,5,29.6z"/>
	</g>
	<g>
		<path class="st0" d="M12.2,8.8c-1.3,0-2.3-1.1-2.3-2.3c0-1.3,1.1-2.3,2.3-2.3c1.3,0,2.3,1.1,2.3,2.3C14.5,7.8,13.5,8.8,12.2,8.8z
			 M12.2,6.1c-0.2,0-0.3,0.2-0.3,0.3s0.2,0.3,0.3,0.3s0.3-0.2,0.3-0.3S12.4,6.1,12.2,6.1z"/>
	</g>
	<g>
		<path class="st0" d="M20.4,11c-1.3,0-2.3-1.1-2.3-2.3c0-1.3,1.1-2.3,2.3-2.3c1.3,0,2.3,1.1,2.3,2.3C22.8,10,21.7,11,20.4,11z
			 M20.4,8.3c-0.2,0-0.3,0.2-0.3,0.3S20.2,9,20.4,9s0.3-0.2,0.3-0.3S20.6,8.3,20.4,8.3z"/>
	</g>
	<g>
		<path class="st0" d="M15.2,36.6c-1.3,0-2.3-1.1-2.3-2.3s1.1-2.3,2.3-2.3c1.3,0,2.3,1.1,2.3,2.3S16.4,36.6,15.2,36.6z M15.2,33.9
			c-0.2,0-0.3,0.2-0.3,0.3c0,0.2,0.2,0.3,0.3,0.3s0.3-0.2,0.3-0.3C15.5,34,15.3,33.9,15.2,33.9z"/>
	</g>
	<g>
		<path class="st0" d="M26.5,36.6c-1.3,0-2.3-1.1-2.3-2.3s1.1-2.3,2.3-2.3s2.3,1.1,2.3,2.3S27.8,36.6,26.5,36.6z M26.5,33.9
			c-0.2,0-0.3,0.2-0.3,0.3c0,0.2,0.2,0.3,0.3,0.3s0.3-0.2,0.3-0.3C26.9,34,26.7,33.9,26.5,33.9z"/>
	</g>
	<g>
		<path class="st0" d="M20.4,49.9c-1.3,0-2.3-1.1-2.3-2.3s1.1-2.3,2.3-2.3c1.3,0,2.3,1.1,2.3,2.3S21.7,49.9,20.4,49.9z M20.4,47.2
			c-0.2,0-0.3,0.2-0.3,0.3c0,0.2,0.2,0.3,0.3,0.3s0.3-0.2,0.3-0.3C20.8,47.3,20.6,47.2,20.4,47.2z"/>
	</g>
	<g>
		<path class="st0" d="M32.6,49.9c-1.3,0-2.3-1.1-2.3-2.3s1.1-2.3,2.3-2.3s2.3,1.1,2.3,2.3S33.9,49.9,32.6,49.9z M32.6,47.2
			c-0.2,0-0.3,0.2-0.3,0.3c0,0.2,0.2,0.3,0.3,0.3s0.3-0.2,0.3-0.3C32.9,47.3,32.8,47.2,32.6,47.2z"/>
	</g>
	<g>
		<path class="st0" d="M37.9,36.6c-1.3,0-2.3-1.1-2.3-2.3s1.1-2.3,2.3-2.3s2.3,1.1,2.3,2.3S39.1,36.6,37.9,36.6z M37.9,33.9
			c-0.2,0-0.3,0.2-0.3,0.3c0,0.2,0.2,0.3,0.3,0.3s0.3-0.2,0.3-0.3C38.2,34,38,33.9,37.9,33.9z"/>
	</g>
	<g>
		<path class="st0" d="M32.6,11c-1.3,0-2.3-1.1-2.3-2.3c0-1.3,1.1-2.3,2.3-2.3s2.3,1.1,2.3,2.3C34.9,10,33.9,11,32.6,11z M32.6,8.3
			c-0.2,0-0.3,0.2-0.3,0.3S32.4,9,32.6,9s0.3-0.2,0.3-0.3S32.8,8.3,32.6,8.3z"/>
	</g>
	<g>
		<path class="st0" d="M26.5,8.8c-1.3,0-2.3-1.1-2.3-2.3c0-1.3,1.1-2.3,2.3-2.3s2.3,1.1,2.3,2.3C28.8,7.8,27.8,8.8,26.5,8.8z
			 M26.5,6.1c-0.2,0-0.3,0.2-0.3,0.3s0.2,0.3,0.3,0.3s0.3-0.2,0.3-0.3S26.7,6.1,26.5,6.1z"/>
	</g>
	<g>
		<path class="st0" d="M40.8,8.8c-1.3,0-2.3-1.1-2.3-2.3c0-1.3,1.1-2.3,2.3-2.3s2.3,1.1,2.3,2.3C43.1,7.8,42.1,8.8,40.8,8.8z
			 M40.8,6.1c-0.2,0-0.3,0.2-0.3,0.3s0.2,0.3,0.3,0.3c0.2,0,0.3-0.2,0.3-0.3S41,6.1,40.8,6.1z"/>
	</g>
	<g>
		<path class="st0" d="M15.2,24.6c-0.6,0-1-0.4-1-1V10.7l-2.1-2.4c-0.4-0.4-0.3-1,0.1-1.4c0.4-0.4,1-0.3,1.4,0.1l2.3,2.7
			c0.2,0.2,0.2,0.4,0.2,0.7v13.2C16.2,24.1,15.7,24.6,15.2,24.6z"/>
	</g>
	<g>
		<path class="st0" d="M37.8,20.8c-0.6,0-1-0.4-1-1v-9.4c0-0.2,0.1-0.5,0.2-0.7L39.4,7c0.4-0.4,1-0.5,1.4-0.1c0.4,0.4,0.5,1,0.1,1.4
			l-2.1,2.4v9.1C38.8,20.3,38.4,20.8,37.8,20.8z"/>
	</g>
	<g>
		<path class="st0" d="M20.4,18.9c-0.6,0-1-0.4-1-1V10c0-0.6,0.4-1,1-1s1,0.4,1,1v7.9C21.4,18.5,21,18.9,20.4,18.9z"/>
	</g>
	<g>
		<path class="st0" d="M26.5,15.9c-0.6,0-1-0.4-1-1V7.8c0-0.6,0.4-1,1-1c0.6,0,1,0.4,1,1v7.1C27.5,15.5,27,15.9,26.5,15.9z"/>
	</g>
	<g>
		<path class="st0" d="M32.6,16.7c-0.6,0-1-0.4-1-1V10c0-0.6,0.4-1,1-1s1,0.4,1,1v5.7C33.6,16.3,33.1,16.7,32.6,16.7z"/>
	</g>
	<g>
		<path class="st0" d="M20.4,47.2c-0.6,0-1-0.4-1-1v-7.6c0-0.6,0.4-1,1-1s1,0.4,1,1v7.6C21.4,46.7,21,47.2,20.4,47.2z"/>
	</g>
	<g>
		<path class="st0" d="M32.6,47.2c-0.6,0-1-0.4-1-1v-6.9c0-0.6,0.4-1,1-1s1,0.4,1,1v6.9C33.6,46.7,33.1,47.2,32.6,47.2z"/>
	</g>
	<g>
		<path class="st0" d="M26.5,49.8c-0.6,0-1-0.4-1-1V35.6c0-0.6,0.4-1,1-1c0.6,0,1,0.4,1,1v13.3C27.5,49.4,27.1,49.8,26.5,49.8z"/>
	</g>
	<g>
		<path class="st0" d="M12.2,49.9c-0.2,0-0.5-0.1-0.6-0.2c-0.4-0.4-0.5-1-0.1-1.4l2.8-3.3v-9.3c0-0.6,0.4-1,1-1s1,0.4,1,1v9.7
			c0,0.2-0.1,0.5-0.2,0.6l-3,3.6C12.7,49.7,12.4,49.9,12.2,49.9z"/>
	</g>
	<g>
		<path class="st0" d="M40.8,49.9c-0.3,0-0.6-0.1-0.8-0.4l-3-3.6c-0.1-0.2-0.2-0.4-0.2-0.6v-9.7c0-0.6,0.4-1,1-1s1,0.4,1,1v9.3
			l2.8,3.3c0.4,0.4,0.3,1.1-0.1,1.4C41.3,49.8,41.1,49.9,40.8,49.9z"/>
	</g>
</g>
</svg>
