<?xml version="1.0" encoding="utf-8"?>
<!-- Generator: Adobe Illustrator 24.0.3, SVG Export Plug-In . SVG Version: 6.00 Build 0)  -->
<svg version="1.1" id="圖層_1" xmlns="http://www.w3.org/2000/svg" xmlns:xlink="http://www.w3.org/1999/xlink" x="0px" y="0px"
	 viewBox="0 0 54 54" style="enable-background:new 0 0 54 54;" xml:space="preserve">
<style type="text/css">
	.st0{fill:#FFFFFF;}
	.st1{clip-path:url(#SVGID_4_);}
	.st2{clip-path:url(#SVGID_6_);}
</style>
<g>
	<g>
		<g>
			<g>
				<path id="SVGID_1_" class="st0" d="M27,52.4c-10.7,0-19-4.8-19-11c0-4.4,4.2-8.2,11.1-10c0.4-0.1,0.9,0.1,1.1,0.5
					c1.3,2.2,2.7,4.6,4.3,7.1c0.6,0.9,1.5,1.4,2.5,1.4s2-0.5,2.5-1.4c1.6-2.5,3-4.9,4.3-7.1c0.2-0.4,0.7-0.6,1.1-0.5
					C41.8,33.2,46,37,46,41.4C46,47.5,37.7,52.4,27,52.4z M18.8,33.5c-5.4,1.6-8.8,4.6-8.8,7.9c0,4.9,7.8,9,17,9s17-4.1,17-9
					c0-3.2-3.4-6.3-8.8-7.9c-1.2,2.1-2.5,4.3-4,6.5c-0.9,1.5-2.5,2.3-4.2,2.3s-3.3-0.9-4.2-2.3C21.3,37.8,20,35.6,18.8,33.5z"/>
			</g>
			<g>
				<defs>
					<path id="SVGID_2_" d="M27,52.4c-10.7,0-19-4.8-19-11c0-4.4,4.2-8.2,11.1-10c0.4-0.1,0.9,0.1,1.1,0.5c1.3,2.2,2.7,4.6,4.3,7.1
						c0.6,0.9,1.5,1.4,2.5,1.4s2-0.5,2.5-1.4c1.6-2.5,3-4.9,4.3-7.1c0.2-0.4,0.7-0.6,1.1-0.5C41.8,33.2,46,37,46,41.4
						C46,47.5,37.7,52.4,27,52.4z M18.8,33.5c-5.4,1.6-8.8,4.6-8.8,7.9c0,4.9,7.8,9,17,9s17-4.1,17-9c0-3.2-3.4-6.3-8.8-7.9
						c-1.2,2.1-2.5,4.3-4,6.5c-0.9,1.5-2.5,2.3-4.2,2.3s-3.3-0.9-4.2-2.3C21.3,37.8,20,35.6,18.8,33.5z"/>
				</defs>
				<use xlink:href="#SVGID_2_"  style="overflow:visible;fill:#FFFFFF;"/>
				<clipPath id="SVGID_4_">
					<use xlink:href="#SVGID_2_"  style="overflow:visible;"/>
				</clipPath>
				<g class="st1">
					<path class="st0" d="M27,52.4c-10.7,0-19-4.8-19-11s8.3-11,19-11s19,4.8,19,11S37.7,52.4,27,52.4z M27,32.4c-9.2,0-17,4.1-17,9
						s7.8,9,17,9s17-4.1,17-9S36.2,32.4,27,32.4z"/>
				</g>
			</g>
		</g>
		<g>
			<g>
				<path id="SVGID_3_" class="st0" d="M27,47.4c-6.6,0-11.8-3.1-11.8-7c0-2.5,2.1-4.7,5.5-6c0.5-0.2,1,0,1.2,0.4
					c0.9,1.5,1.8,2.9,2.5,4.1c0.6,0.9,1.5,1.4,2.5,1.4s2-0.5,2.5-1.4c0.8-1.2,1.7-2.6,2.5-4.1c0.2-0.4,0.8-0.6,1.2-0.4
					c3.5,1.3,5.5,3.5,5.5,6C38.8,44.3,33.6,47.4,27,47.4z M20.6,36.6c-2.1,1-3.4,2.4-3.4,3.8c0,2.7,4.5,5,9.8,5s9.8-2.3,9.8-5
					c0-1.4-1.3-2.8-3.4-3.8c-0.7,1.2-1.5,2.4-2.1,3.4c-0.9,1.5-2.5,2.3-4.2,2.3s-3.3-0.9-4.2-2.3C22.1,39,21.4,37.8,20.6,36.6z"/>
			</g>
			<g>
				<defs>
					<path id="SVGID_5_" d="M27,47.4c-6.6,0-11.8-3.1-11.8-7c0-2.5,2.1-4.7,5.5-6c0.5-0.2,1,0,1.2,0.4c0.9,1.5,1.8,2.9,2.5,4.1
						c0.6,0.9,1.5,1.4,2.5,1.4s2-0.5,2.5-1.4c0.8-1.2,1.7-2.6,2.5-4.1c0.2-0.4,0.8-0.6,1.2-0.4c3.5,1.3,5.5,3.5,5.5,6
						C38.8,44.3,33.6,47.4,27,47.4z M20.6,36.6c-2.1,1-3.4,2.4-3.4,3.8c0,2.7,4.5,5,9.8,5s9.8-2.3,9.8-5c0-1.4-1.3-2.8-3.4-3.8
						c-0.7,1.2-1.5,2.4-2.1,3.4c-0.9,1.5-2.5,2.3-4.2,2.3s-3.3-0.9-4.2-2.3C22.1,39,21.4,37.8,20.6,36.6z"/>
				</defs>
				<use xlink:href="#SVGID_5_"  style="overflow:visible;fill:#FFFFFF;"/>
				<clipPath id="SVGID_6_">
					<use xlink:href="#SVGID_5_"  style="overflow:visible;"/>
				</clipPath>
				<g class="st2">
					<path class="st0" d="M27,47.4c-6.6,0-11.8-3.1-11.8-7s5.2-7,11.8-7s11.8,3.1,11.8,7S33.6,47.4,27,47.4z M27,35.4
						c-5.3,0-9.8,2.3-9.8,5s4.5,5,9.8,5s9.8-2.3,9.8-5S32.3,35.4,27,35.4z"/>
				</g>
			</g>
		</g>
	</g>
	<g>
		<g>
			<path class="st0" d="M27,42.4c-1.7,0-3.3-0.9-4.2-2.3C17.9,32.3,12,21.9,12,16.6c0-8.3,6.7-15,15-15s15,6.7,15,15
				c0,5.3-5.9,15.6-10.8,23.4C30.3,41.5,28.7,42.4,27,42.4z M27,3.6c-7.2,0-13,5.8-13,13c0,3.7,3.7,11.7,10.5,22.3
				c0.6,0.9,1.5,1.4,2.5,1.4s2-0.5,2.5-1.4C36.3,28.3,40,20.4,40,16.6C40,9.5,34.2,3.6,27,3.6z"/>
		</g>
		<g>
			<path class="st0" d="M27,24.6c-4.4,0-8-3.6-8-8s3.6-8,8-8s8,3.6,8,8S31.4,24.6,27,24.6z M27,10.6c-3.3,0-6,2.7-6,6s2.7,6,6,6
				s6-2.7,6-6S30.3,10.6,27,10.6z"/>
		</g>
	</g>
</g>
</svg>
